<svg width="52" height="29" viewBox="0 0 52 29" fill="none" xmlns="http://www.w3.org/2000/svg">
<path fill-rule="evenodd" clip-rule="evenodd" d="M12.8614 0.600098C13.966 0.600098 14.8614 1.49553 14.8614 2.6001V11.1359L22.2533 6.86806C23.2099 6.31576 24.4331 6.6435 24.9854 7.60008C25.5377 8.55665 25.2099 9.77984 24.2533 10.3321L16.8612 14.6001L24.2533 18.8681C25.2099 19.4204 25.5377 20.6435 24.9854 21.6001C24.4331 22.5567 23.2099 22.8844 22.2533 22.3321L14.8614 18.0643V26.6001C14.8614 27.7047 13.966 28.6001 12.8614 28.6001C11.7568 28.6001 10.8614 27.7047 10.8614 26.6001V18.0642L3.46935 22.3321C2.51277 22.8844 1.28959 22.5567 0.73729 21.6001C0.184993 20.6435 0.512728 19.4204 1.46931 18.8681L8.86141 14.6001L1.46931 10.3321C0.512728 9.77984 0.184993 8.55665 0.73729 7.60008C1.28959 6.6435 2.51277 6.31576 3.46935 6.86806L10.8614 11.136V2.6001C10.8614 1.49553 11.7568 0.600098 12.8614 0.600098Z" fill="#F36520"/>
<path d="M30.2537 14.6001H50.2537" stroke="#F36520" stroke-width="3" stroke-linecap="round"/>
</svg>
